<svg xmlns="http://www.w3.org/2000/svg" xmlns:xlink="http://www.w3.org/1999/xlink" width="500" zoomAndPan="magnify" viewBox="0 0 375 374.999991" height="500" preserveAspectRatio="xMidYMid meet" version="1.0"><defs><g/></defs><rect x="-37.5" width="450" fill="#ffffff" y="-37.499999" height="449.999989" fill-opacity="1"/><rect x="-37.5" width="450" fill="#ffffff" y="-37.499999" height="449.999989" fill-opacity="1"/><rect x="-37.5" width="450" fill="#ffffff" y="-37.499999" height="449.999989" fill-opacity="1"/><rect x="-37.5" width="450" fill="#ffffff" y="-37.499999" height="449.999989" fill-opacity="1"/><g fill="#38b6ff" fill-opacity="1"><g transform="translate(55.487796, 243.709298)"><g><path d="M 106.796875 -27.515625 C 106.535156 -26.492188 106.40625 -25.789062 106.40625 -25.40625 C 106.40625 -24.519531 106.660156 -23.820312 107.171875 -23.3125 C 107.679688 -22.800781 108.320312 -22.546875 109.09375 -22.546875 C 110.613281 -22.546875 111.914062 -23.210938 113 -24.546875 C 114.082031 -25.890625 114.816406 -26.5625 115.203125 -26.5625 C 115.835938 -26.5625 116.34375 -26.113281 116.71875 -25.21875 C 117.101562 -24.320312 117.296875 -23.300781 117.296875 -22.15625 C 117.429688 -18.71875 116.128906 -15.210938 113.390625 -11.640625 C 110.648438 -8.078125 106.988281 -5.148438 102.40625 -2.859375 C 97.820312 -0.566406 92.851562 0.578125 87.5 0.578125 C 81.132812 0.578125 75.59375 -0.628906 70.875 -3.046875 C 66.164062 -5.472656 62.921875 -8.660156 61.140625 -12.609375 C 57.703125 -8.148438 53.753906 -4.835938 49.296875 -2.671875 C 44.835938 -0.503906 40.125 0.578125 35.15625 0.578125 C 29.289062 0.578125 23.84375 -0.882812 18.8125 -3.8125 C 13.78125 -6.75 9.769531 -10.921875 6.78125 -16.328125 C 3.789062 -21.742188 2.296875 -27.890625 2.296875 -34.765625 C 2.296875 -46.359375 4.488281 -57.28125 8.875 -67.53125 C 13.269531 -77.789062 19.414062 -86.070312 27.3125 -92.375 C 35.21875 -98.675781 44.195312 -101.828125 54.25 -101.828125 C 59.726562 -101.828125 64.410156 -101.1875 68.296875 -99.90625 C 72.179688 -98.632812 75.71875 -96.726562 78.90625 -94.1875 L 85.390625 -115.578125 C 85.773438 -116.722656 85.96875 -117.679688 85.96875 -118.453125 C 85.96875 -119.847656 85.617188 -120.988281 84.921875 -121.875 C 84.222656 -122.769531 83.300781 -123.664062 82.15625 -124.5625 C 80.875 -125.582031 79.945312 -126.472656 79.375 -127.234375 C 78.800781 -128.003906 78.707031 -129.023438 79.09375 -130.296875 C 79.851562 -133.222656 83.863281 -135.769531 91.125 -137.9375 C 98.382812 -140.101562 105.960938 -141.1875 113.859375 -141.1875 C 121.242188 -141.1875 126.6875 -139.785156 130.1875 -136.984375 C 133.695312 -134.179688 135.453125 -130.359375 135.453125 -125.515625 C 135.453125 -122.710938 135.003906 -119.972656 134.109375 -117.296875 Z M 74.890625 -81.1875 C 72.847656 -82.976562 70.617188 -83.875 68.203125 -83.875 C 64.503906 -83.875 60.875 -81.132812 57.3125 -75.65625 C 53.75 -70.175781 50.882812 -63.550781 48.71875 -55.78125 C 46.550781 -48.007812 45.53125 -41.003906 45.65625 -34.765625 C 45.65625 -27.765625 47.945312 -24.265625 52.53125 -24.265625 C 54.1875 -24.265625 55.585938 -24.929688 56.734375 -26.265625 C 57.878906 -27.609375 58.960938 -29.804688 59.984375 -32.859375 Z M 74.890625 -81.1875 "/></g></g></g><g fill="#38b6ff" fill-opacity="1"><g transform="translate(190.167195, 243.709298)"><g><path d="M 97.4375 -101.828125 C 106.863281 -101.828125 114.410156 -98.453125 120.078125 -91.703125 C 125.742188 -84.953125 128.578125 -76.035156 128.578125 -64.953125 C 128.578125 -59.222656 127.875 -53.617188 126.46875 -48.140625 C 122.394531 -31.710938 115.421875 -19.296875 105.546875 -10.890625 C 95.679688 -2.484375 84.316406 1.71875 71.453125 1.71875 C 64.191406 1.71875 57.914062 0.476562 52.625 -2 C 47.34375 -4.488281 43.109375 -8.023438 39.921875 -12.609375 L 33.046875 -6.6875 C 30.378906 -4.394531 27.769531 -2.707031 25.21875 -1.625 C 22.664062 -0.539062 19.738281 0 16.4375 0 L 8.03125 0 C 4.84375 0 2.390625 -0.664062 0.671875 -2 C -1.046875 -3.34375 -1.90625 -5.285156 -1.90625 -7.828125 C -1.90625 -8.972656 -1.71875 -10.3125 -1.34375 -11.84375 L 30.5625 -115.578125 C 30.945312 -116.722656 31.140625 -117.679688 31.140625 -118.453125 C 31.140625 -120.617188 29.800781 -122.65625 27.125 -124.5625 C 25.851562 -125.707031 24.960938 -126.628906 24.453125 -127.328125 C 23.941406 -128.035156 23.878906 -128.960938 24.265625 -130.109375 C 25.148438 -133.035156 29.191406 -135.613281 36.390625 -137.84375 C 43.585938 -140.070312 51.132812 -141.1875 59.03125 -141.1875 C 66.414062 -141.1875 71.859375 -139.753906 75.359375 -136.890625 C 78.867188 -134.023438 80.625 -130.171875 80.625 -125.328125 C 80.625 -122.648438 80.175781 -119.972656 79.28125 -117.296875 L 71.265625 -91.328125 C 78.648438 -98.328125 87.375 -101.828125 97.4375 -101.828125 Z M 75.84375 -49.296875 C 78.394531 -57.953125 79.671875 -64.957031 79.671875 -70.3125 C 79.671875 -76.164062 77.953125 -79.09375 74.515625 -79.09375 C 71.453125 -79.09375 68.582031 -77.5 65.90625 -74.3125 L 53.5 -33.8125 L 52.34375 -30.1875 C 51.707031 -28.269531 51.390625 -26.296875 51.390625 -24.265625 C 51.390625 -19.804688 53.492188 -17.578125 57.703125 -17.578125 C 60.753906 -17.578125 63.679688 -19.804688 66.484375 -24.265625 C 69.285156 -28.722656 72.40625 -37.066406 75.84375 -49.296875 Z M 75.84375 -49.296875 "/></g></g></g></svg>